# xmcd
#
# Track frame offsets:
#	150
#	20795
#	70582
#	78895
#	86553
#	140820
#	149304
#	158147
#	165284
#
# Disc length: 2356 seconds
#
# Revision: 0
# Processed by: cddbd v1.5.2PL0 Copyright (c) Steve Scherf et al.
# Submitted via: EZCDAudioConverter 2.1.7.1
#
DISCID=6e093209
DTITLE=Don Harper - Cold Worlds
DYEAR=1900
DGENRE=
TTITLE0=Dr. Who Theme
TTITLE1=Nightmare
TTITLE2=Moving Shadows
TTITLE3=Dank Earth
TTITLE4=Cold Worlds
TTITLE5=Psychosis
TTITLE6=Sinister Stranger
TTITLE7=Twisted Mind
TTITLE8=Trouble Mind - Torment
EXTD=
EXTT0=
EXTT1=
EXTT2=
EXTT3=
EXTT4=
EXTT5=
EXTT6=
EXTT7=
EXTT8=
PLAYORDER=
